<?xml version="1.0" encoding="UTF-8" standalone="no"?>
<svg
   xmlns:dc="http://purl.org/dc/elements/1.1/"
   xmlns:cc="http://creativecommons.org/ns#"
   xmlns:rdf="http://www.w3.org/1999/02/22-rdf-syntax-ns#"
   xmlns:svg="http://www.w3.org/2000/svg"
   xmlns="http://www.w3.org/2000/svg"
   xmlns:sodipodi="http://sodipodi.sourceforge.net/DTD/sodipodi-0.dtd"
   xmlns:inkscape="http://www.inkscape.org/namespaces/inkscape"
   width="100%"
   height="100%"
   viewBox="0 0 260 260"
   version="1.1"
   xml:space="preserve"
   style="fill-rule:evenodd;clip-rule:evenodd;stroke-linejoin:round;stroke-miterlimit:1.41421;"
   id="svg16"
   sodipodi:docname="frappe-bird-grey.svg"
   inkscape:version="0.92.2 5c3e80d, 2017-08-06"><metadata
     id="metadata22"><rdf:RDF><cc:Work
         rdf:about=""><dc:format>image/svg+xml</dc:format><dc:type
           rdf:resource="http://purl.org/dc/dcmitype/StillImage" /></cc:Work></rdf:RDF></metadata><defs
     id="defs20" /><sodipodi:namedview
     pagecolor="#ffffff"
     bordercolor="#666666"
     borderopacity="1"
     objecttolerance="10"
     gridtolerance="10"
     guidetolerance="10"
     inkscape:pageopacity="0"
     inkscape:pageshadow="2"
     inkscape:window-width="1920"
     inkscape:window-height="1029"
     id="namedview18"
     showgrid="false"
     inkscape:snap-global="false"
     inkscape:zoom="2.5673415"
     inkscape:cx="125.36812"
     inkscape:cy="132.66533"
     inkscape:window-x="0"
     inkscape:window-y="24"
     inkscape:window-maximized="1"
     inkscape:current-layer="svg16" /><path
     inkscape:connector-curvature="0"
     id="path846"
     d="m 39.426993,41.26578 c -0.08308,-0.002 -0.162537,0.01476 -0.244177,0.01847 -0.195406,-0.01104 -0.394663,-0.0078 -0.595581,0.02219 -0.671494,0.09826 -1.359798,0.439289 -1.985268,1.097637 L 36.166705,42.984362 3.911539,86.00785 c -1.4521873,1.95837 -0.089029,5.089411 2.840468,4.758942 l 35.051779,-4.999463 7.486826,52.499391 c 0.143332,1.06941 0.708175,1.87792 1.45651,2.37853 0.06099,0.57446 0.300326,1.15825 0.786491,1.67605 l 54.221237,55.16042 c 0.35241,0.34946 0.76163,0.57974 1.18925,0.71967 l 43.2449,43.9932 c 2.19797,2.06517 5.73881,0.59111 5.73827,-2.44537 l 0.72154,-88.30898 100.76861,-99.226182 c 2.03273,-1.933848 0.52846,-5.096585 -1.98911,-5.01476 L 146.21842,46.315471 c -1.15721,-0.0078 -1.82288,0.589677 -2.08644,0.84183 L 70.489255,119.67376 95.234723,86.666413 c 1.320352,-1.808803 0.561745,-3.846193 -0.6872,-4.787579 L 41.349464,41.92492 C 40.706305,41.485816 40.049657,41.2839 39.427179,41.266357 Z"
     style="fill:#29344a;fill-opacity:1;stroke:none;stroke-width:0.99999994px;stroke-linecap:butt;stroke-linejoin:miter;stroke-opacity:1" /></svg>